<?xml version="1.0" standalone="no"?>
<!DOCTYPE svg PUBLIC "-//W3C//DTD SVG 20010904//EN"
 "http://www.w3.org/TR/2001/REC-SVG-20010904/DTD/svg10.dtd">
<svg version="1.0" xmlns="http://www.w3.org/2000/svg"
 width="500.000000pt" height="500.000000pt" viewBox="0 0 500.000000 500.000000"
 preserveAspectRatio="xMidYMid meet">
<metadata>
Created by potrace 1.14, written by Peter Selinger 2001-2017
</metadata>
<g transform="translate(0.000000,500.000000) scale(0.100000,-0.100000)"
fill="#000000" stroke="none">
<path d="M3365 4752 c-38 -20 -72 -40 -75 -43 -3 -3 -35 -16 -72 -29 -38 -13
-68 -28 -68 -32 0 -5 -4 -7 -8 -4 -5 3 -20 -1 -34 -8 -13 -7 -47 -21 -74 -31
-27 -10 -54 -22 -60 -27 -19 -14 -98 -17 -113 -4 -8 6 -16 10 -18 8 -7 -6 -78
11 -92 22 -12 9 -13 8 -6 -3 6 -11 5 -12 -6 -5 -8 4 -21 10 -29 12 -29 6 -380
9 -380 3 0 -4 -8 -7 -17 -8 -27 -1 -59 -10 -81 -22 -11 -6 -22 -7 -26 -4 -3 3
-6 2 -6 -4 0 -5 -27 -10 -60 -11 -33 0 -65 -4 -71 -8 -7 -4 -9 -3 -6 2 3 6
-15 16 -41 23 -26 8 -53 19 -61 25 -12 9 -13 8 -6 -4 5 -9 0 -8 -13 4 -12 11
-22 16 -22 11 0 -4 -12 0 -26 10 -18 11 -24 12 -18 4 6 -11 3 -10 -10 1 -10 8
-23 15 -30 16 -18 3 -109 46 -138 66 -16 11 -28 17 -28 13 0 -3 -11 2 -25 11
-14 9 -25 13 -25 9 0 -4 -6 -3 -12 3 -9 6 -22 6 -38 0 -20 -7 -22 -11 -10 -18
10 -6 11 -10 3 -10 -9 0 -6 -12 8 -36 11 -20 18 -39 15 -41 -3 -3 4 -14 15
-26 10 -11 19 -27 19 -34 0 -7 5 -13 11 -13 5 0 8 -4 5 -8 -3 -5 4 -15 15 -22
10 -8 19 -20 19 -27 0 -6 8 -17 18 -22 9 -6 14 -11 10 -11 -7 0 28 -58 51 -86
6 -7 5 -16 -2 -23 -8 -8 -8 -11 2 -11 7 0 9 -5 6 -10 -4 -6 -1 -17 5 -25 7 -8
9 -15 4 -15 -5 0 -2 -6 6 -13 24 -20 37 -50 33 -77 -2 -14 -4 -33 -4 -42 0
-10 -5 -18 -11 -18 -6 0 -8 -9 -5 -20 3 -10 1 -20 -3 -22 -5 -2 -11 -16 -14
-33 -2 -16 -5 -30 -7 -30 -7 0 -14 -270 -8 -352 1 -24 7 -43 12 -43 5 0 7 -6
4 -14 -3 -8 -3 -16 2 -18 4 -2 17 -22 29 -45 l21 -42 -20 -15 c-12 -8 -28 -12
-35 -9 -10 4 -12 0 -8 -11 4 -9 3 -16 -2 -14 -5 2 -10 -1 -11 -6 -1 -5 -14
-17 -30 -27 -15 -10 -24 -19 -19 -19 6 0 1 -7 -10 -15 -10 -8 -15 -15 -10 -15
5 0 1 -9 -9 -20 -10 -11 -15 -20 -11 -20 4 0 -2 -10 -14 -22 -11 -12 -20 -28
-20 -35 0 -7 -5 -13 -11 -13 -5 0 -8 -4 -4 -9 3 -5 1 -12 -5 -16 -6 -4 -8 -10
-5 -15 3 -4 -2 -10 -10 -14 -8 -3 -12 -12 -9 -21 3 -8 1 -15 -6 -15 -6 0 -9
-4 -5 -9 3 -5 1 -12 -5 -16 -6 -4 -8 -11 -5 -16 4 -5 1 -9 -5 -9 -6 0 -9 -4
-5 -9 3 -5 1 -13 -5 -16 -6 -4 -27 -41 -47 -83 -20 -42 -41 -80 -47 -84 -6 -4
-8 -8 -4 -8 10 0 -33 -113 -47 -122 -6 -5 -5 -8 5 -8 11 0 11 -3 2 -12 -7 -7
-12 -20 -12 -30 0 -10 -5 -18 -11 -18 -6 0 -9 -7 -5 -15 3 -8 1 -15 -4 -15 -6
0 -9 -3 -8 -7 1 -5 -4 -21 -11 -38 -7 -16 -14 -37 -16 -45 -2 -8 -4 -17 -5
-20 -1 -3 -2 -8 -1 -12 0 -5 -3 -8 -7 -8 -5 0 -9 -6 -9 -12 0 -7 -6 -33 -13
-58 -8 -25 -14 -48 -16 -52 -1 -5 -3 -10 -4 -13 -1 -3 -3 -9 -4 -14 0 -5 -4
-13 -8 -17 -5 -4 -8 -16 -8 -26 0 -10 -4 -18 -8 -18 -5 0 -9 -6 -9 -12 -1 -7
-13 -44 -27 -82 -14 -37 -23 -72 -20 -77 3 -5 1 -9 -4 -9 -9 0 -22 -30 -26
-58 0 -7 -8 -17 -16 -22 -8 -5 -11 -10 -6 -10 5 0 3 -7 -4 -15 -7 -8 -10 -15
-6 -15 4 0 0 -10 -8 -23 -8 -12 -15 -25 -16 -29 0 -5 0 -9 -1 -10 -4 -13 -11
-56 -25 -145 -10 -64 -10 -104 -1 -110 5 -3 3 -9 -4 -14 -8 -5 -9 -9 -3 -9 12
0 12 -29 -1 -49 -6 -10 -4 -12 4 -6 10 5 9 2 0 -13 -7 -12 -17 -18 -22 -15 -5
3 -12 2 -16 -3 -3 -5 -17 -15 -31 -21 -83 -40 -176 -97 -205 -127 -18 -19 -36
-32 -39 -29 -3 4 -6 1 -6 -5 0 -7 -8 -20 -17 -30 -24 -25 -41 -47 -93 -117
-24 -33 -57 -71 -74 -85 -16 -14 -39 -35 -52 -46 -12 -12 -34 -24 -49 -28 -14
-4 -24 -10 -21 -14 2 -4 -10 -7 -27 -7 -18 1 -38 -3 -44 -8 -9 -6 -13 -6 -13
1 0 11 -31 9 -50 -3 -6 -3 -10 -3 -10 2 0 4 -11 8 -25 8 -14 0 -25 -3 -25 -7
0 -3 -11 -5 -24 -4 -14 2 -27 -3 -30 -11 -3 -8 -10 -12 -14 -9 -5 3 -16 -8
-26 -25 -13 -22 -14 -29 -4 -29 8 0 9 -3 3 -8 -6 -4 -11 -41 -11 -82 0 -51 -4
-74 -12 -73 -6 2 -9 -4 -6 -12 4 -8 11 -12 16 -9 6 4 2 -5 -7 -20 -10 -15 -13
-26 -6 -26 6 0 11 -7 11 -15 0 -9 7 -18 15 -21 8 -4 12 -10 9 -15 -3 -5 1 -9
9 -9 7 0 23 -10 34 -23 23 -25 61 -57 68 -57 3 0 18 -13 33 -30 16 -16 32 -30
36 -30 4 0 14 -7 23 -15 8 -9 28 -19 44 -22 16 -3 29 -10 29 -14 0 -5 11 -14
25 -19 14 -5 25 -14 25 -20 0 -5 7 -10 15 -10 8 0 15 -5 15 -11 0 -5 4 -7 10
-4 5 3 10 1 10 -5 0 -6 5 -8 10 -5 6 3 10 2 10 -4 0 -5 9 -12 19 -16 11 -3 26
-19 33 -35 7 -17 17 -30 21 -30 5 0 6 -4 2 -9 -3 -5 -1 -12 4 -16 5 -3 8 -14
6 -25 -2 -11 0 -20 6 -20 5 0 9 -9 9 -20 0 -11 7 -20 15 -20 8 0 15 -4 15 -8
0 -8 24 -7 88 2 18 3 32 1 32 -5 0 -6 4 -8 9 -5 9 6 109 -41 129 -61 8 -7 18
-11 23 -8 5 4 9 2 9 -3 0 -9 37 -25 53 -23 4 1 7 -4 7 -9 0 -5 3 -9 8 -8 11 3
83 -34 77 -40 -2 -3 4 -12 15 -19 11 -8 18 -19 15 -24 -4 -5 -1 -9 5 -9 6 0 9
-4 5 -9 -3 -5 4 -12 15 -16 11 -3 20 -13 20 -21 0 -8 6 -14 13 -14 6 0 25 -11
41 -25 l29 -25 1721 0 c947 0 1731 3 1743 6 13 4 21 10 18 14 -3 5 4 6 15 3
11 -3 20 0 20 6 0 6 3 10 8 9 14 -3 62 14 62 23 0 5 9 9 20 9 11 0 20 5 20 11
0 5 5 7 10 4 6 -3 10 -1 10 4 0 6 3 10 8 9 4 -1 17 1 30 6 22 7 22 10 22 186
0 149 -3 181 -16 194 -8 9 -13 16 -9 16 7 0 -6 16 -67 81 -27 28 -48 58 -49
67 -1 9 -2 26 -3 37 0 11 2 28 6 37 5 9 3 20 -2 23 -6 4 -8 11 -5 16 12 18 12
149 1 149 -6 0 -4 5 4 10 8 5 10 10 4 10 -7 0 -15 17 -18 38 -3 20 -7 46 -9
57 -5 30 -48 115 -58 115 -5 0 -9 6 -9 14 0 8 -7 17 -16 20 -8 3 -13 10 -10
15 5 8 -22 25 -33 21 -2 -1 -7 3 -10 8 -8 13 -131 53 -142 46 -5 -3 -9 -1 -9
4 0 6 -9 8 -20 5 -11 -3 -20 0 -20 6 0 6 -5 11 -12 11 -6 0 -26 16 -44 35 -17
19 -30 35 -27 35 2 0 -5 10 -17 22 -11 12 -20 26 -20 30 0 5 -3 7 -7 5 -5 -2
-27 16 -51 39 -23 24 -40 44 -37 44 4 0 -1 7 -9 16 -9 8 -14 20 -11 25 4 5 1
9 -6 9 -7 0 -9 3 -6 7 4 3 -2 12 -13 20 -11 8 -20 19 -20 24 0 5 -9 19 -20 31
-11 12 -20 28 -20 35 0 7 -31 44 -70 83 -49 49 -70 78 -70 95 0 14 -4 25 -8
25 -4 0 -14 21 -21 48 -8 26 -19 53 -25 61 -9 12 -8 13 4 6 12 -7 13 -6 4 6
-6 8 -10 23 -7 34 9 46 8 75 -1 75 -6 0 -5 4 3 9 8 5 11 16 8 25 -4 9 -3 16 1
16 4 0 8 12 9 28 0 15 4 41 8 57 4 17 8 36 8 43 0 6 5 12 10 12 5 0 4 6 -2 14
-7 8 -8 17 -3 20 10 6 14 45 12 126 -1 84 -3 99 -12 94 -4 -3 -8 2 -8 11 0 9
-6 22 -12 29 -7 7 -26 31 -43 52 -16 21 -38 45 -47 53 -10 9 -18 19 -18 24 0
4 -12 20 -26 35 -14 15 -33 44 -42 65 -9 20 -20 37 -24 37 -4 0 -5 9 -3 20 2
11 0 20 -6 20 -5 0 -8 3 -7 8 2 10 -24 64 -39 80 -7 7 -13 18 -13 23 0 5 -7 9
-16 9 -8 0 -12 4 -9 10 3 6 1 10 -6 10 -11 0 -89 72 -89 84 0 8 -64 100 -72
104 -5 2 -8 10 -8 17 0 8 -9 17 -20 20 -11 3 -20 10 -20 14 0 12 -89 99 -95
93 -3 -3 -5 2 -5 12 0 9 -4 14 -10 11 -5 -3 -10 -1 -10 5 0 6 -5 8 -12 4 -6
-4 -8 -3 -5 3 4 6 -4 18 -17 26 -13 9 -30 22 -37 29 -22 20 -57 38 -74 38 -8
0 -15 5 -15 10 0 6 -8 10 -17 10 -9 0 -13 3 -10 7 4 3 2 12 -4 20 -7 8 -8 13
-1 13 5 0 9 6 9 13 -2 21 24 98 31 93 4 -2 7 17 7 42 0 26 4 50 10 54 6 5 6
11 -2 19 -6 6 -9 18 -6 26 3 8 0 19 -8 24 -9 6 -10 9 -2 9 7 0 10 10 8 23 -2
12 -6 35 -9 51 -3 17 0 37 7 45 9 12 9 13 0 7 -8 -4 -13 -2 -13 6 0 8 6 20 13
27 6 8 7 11 1 8 -7 -4 -10 6 -10 28 1 19 4 35 7 35 3 0 6 7 6 15 0 8 -3 15 -7
15 -4 0 -7 6 -8 13 -1 6 -7 42 -15 79 -9 46 -11 70 -3 78 5 5 7 10 2 10 -4 0
2 14 14 30 12 17 18 30 13 30 -4 0 -1 5 9 10 10 7 14 17 10 32 -4 16 -2 19 9
13 11 -6 12 -5 2 6 -19 20 -16 41 12 79 13 18 22 37 19 41 -3 5 -2 9 3 9 9 0
39 61 35 73 -1 4 3 7 9 7 5 0 7 5 4 10 -3 6 -1 10 5 10 6 0 8 5 5 10 -3 6 -1
10 4 10 6 0 11 3 10 8 -2 15 14 52 22 52 5 0 9 6 9 14 0 8 7 22 16 30 8 9 12
16 8 16 -3 0 -1 7 6 15 19 23 2 18 -75 -23z"/>
</g>
</svg>
